<?xml version="1.0" encoding="utf-8" standalone="no"?>
<!DOCTYPE svg PUBLIC "-//W3C//DTD SVG 1.1//EN"
  "http://www.w3.org/Graphics/SVG/1.1/DTD/svg11.dtd">
<svg height="504pt" version="1.1" viewBox="0 0 792 504" width="792pt" xmlns="http://www.w3.org/2000/svg" xmlns:xlink="http://www.w3.org/1999/xlink">
 <metadata>
  <rdf:RDF xmlns:cc="http://creativecommons.org/ns#" xmlns:dc="http://purl.org/dc/elements/1.1/" xmlns:rdf="http://www.w3.org/1999/02/22-rdf-syntax-ns#">
   <cc:Work>
    <dc:type rdf:resource="http://purl.org/dc/dcmitype/StillImage"/>
    <dc:date>2022-01-24T02:43:47.945788</dc:date>
    <dc:format>image/svg+xml</dc:format>
    <dc:creator>
     <cc:Agent>
      <dc:title>Matplotlib v3.4.3, https://matplotlib.org/</dc:title>
     </cc:Agent>
    </dc:creator>
   </cc:Work>
  </rdf:RDF>
 </metadata>
 <defs>
  <style type="text/css">*{stroke-linecap:butt;stroke-linejoin:round;}</style>
 </defs>
 <g id="figure_1">
  <g id="patch_1">
   <path d="M 0 504 
L 792 504 
L 792 0 
L 0 0 
z
" style="fill:none;"/>
  </g>
  <g id="axes_1">
   <g id="patch_2">
    <path d="M 99 441 
L 712.8 441 
L 712.8 60.48 
L 99 60.48 
z
" style="fill:#ffffff;"/>
   </g>
   <g id="PathCollection_1">
    <defs>
     <path d="M 0 3 
C 0.795609 3 1.55874 2.683901 2.12132 2.12132 
C 2.683901 1.55874 3 0.795609 3 0 
C 3 -0.795609 2.683901 -1.55874 2.12132 -2.12132 
C 1.55874 -2.683901 0.795609 -3 0 -3 
C -0.795609 -3 -1.55874 -2.683901 -2.12132 -2.12132 
C -2.683901 -1.55874 -3 -0.795609 -3 0 
C -3 0.795609 -2.683901 1.55874 -2.12132 2.12132 
C -1.55874 2.683901 -0.795609 3 0 3 
z
" id="m6ec7bace80" style="stroke:#1f77b4;"/>
    </defs>
    <g clip-path="url(#p325c505c26)">
     <use style="fill:#1f77b4;stroke:#1f77b4;" x="126.9" xlink:href="#m6ec7bace80" y="423.703636"/>
     <use style="fill:#1f77b4;stroke:#1f77b4;" x="138.525" xlink:href="#m6ec7bace80" y="416.496753"/>
     <use style="fill:#1f77b4;stroke:#1f77b4;" x="150.15" xlink:href="#m6ec7bace80" y="409.289853"/>
     <use style="fill:#1f77b4;stroke:#1f77b4;" x="161.775" xlink:href="#m6ec7bace80" y="402.082943"/>
     <use style="fill:#1f77b4;stroke:#1f77b4;" x="173.4" xlink:href="#m6ec7bace80" y="394.875984"/>
     <use style="fill:#1f77b4;stroke:#1f77b4;" x="185.025" xlink:href="#m6ec7bace80" y="387.668997"/>
     <use style="fill:#1f77b4;stroke:#1f77b4;" x="196.65" xlink:href="#m6ec7bace80" y="380.461949"/>
     <use style="fill:#1f77b4;stroke:#1f77b4;" x="208.275" xlink:href="#m6ec7bace80" y="373.254744"/>
     <use style="fill:#1f77b4;stroke:#1f77b4;" x="219.9" xlink:href="#m6ec7bace80" y="366.047706"/>
     <use style="fill:#1f77b4;stroke:#1f77b4;" x="231.525" xlink:href="#m6ec7bace80" y="358.840902"/>
     <use style="fill:#1f77b4;stroke:#1f77b4;" x="243.15" xlink:href="#m6ec7bace80" y="351.634074"/>
     <use style="fill:#1f77b4;stroke:#1f77b4;" x="254.775" xlink:href="#m6ec7bace80" y="344.427134"/>
     <use style="fill:#1f77b4;stroke:#1f77b4;" x="266.4" xlink:href="#m6ec7bace80" y="337.220203"/>
     <use style="fill:#1f77b4;stroke:#1f77b4;" x="278.025" xlink:href="#m6ec7bace80" y="330.013333"/>
     <use style="fill:#1f77b4;stroke:#1f77b4;" x="289.65" xlink:href="#m6ec7bace80" y="322.806474"/>
     <use style="fill:#1f77b4;stroke:#1f77b4;" x="301.275" xlink:href="#m6ec7bace80" y="315.599575"/>
     <use style="fill:#1f77b4;stroke:#1f77b4;" x="312.9" xlink:href="#m6ec7bace80" y="308.392668"/>
     <use style="fill:#1f77b4;stroke:#1f77b4;" x="324.525" xlink:href="#m6ec7bace80" y="301.185787"/>
     <use style="fill:#1f77b4;stroke:#1f77b4;" x="336.15" xlink:href="#m6ec7bace80" y="293.979004"/>
     <use style="fill:#1f77b4;stroke:#1f77b4;" x="347.775" xlink:href="#m6ec7bace80" y="286.772276"/>
     <use style="fill:#1f77b4;stroke:#1f77b4;" x="359.4" xlink:href="#m6ec7bace80" y="279.565555"/>
     <use style="fill:#1f77b4;stroke:#1f77b4;" x="371.025" xlink:href="#m6ec7bace80" y="272.358833"/>
     <use style="fill:#1f77b4;stroke:#1f77b4;" x="382.65" xlink:href="#m6ec7bace80" y="265.152092"/>
     <use style="fill:#1f77b4;stroke:#1f77b4;" x="394.275" xlink:href="#m6ec7bace80" y="257.9453"/>
     <use style="fill:#1f77b4;stroke:#1f77b4;" x="405.9" xlink:href="#m6ec7bace80" y="250.738504"/>
     <use style="fill:#1f77b4;stroke:#1f77b4;" x="417.525" xlink:href="#m6ec7bace80" y="243.531751"/>
     <use style="fill:#1f77b4;stroke:#1f77b4;" x="429.15" xlink:href="#m6ec7bace80" y="236.325023"/>
     <use style="fill:#1f77b4;stroke:#1f77b4;" x="440.775" xlink:href="#m6ec7bace80" y="229.118274"/>
     <use style="fill:#1f77b4;stroke:#1f77b4;" x="452.4" xlink:href="#m6ec7bace80" y="221.911514"/>
     <use style="fill:#1f77b4;stroke:#1f77b4;" x="464.025" xlink:href="#m6ec7bace80" y="214.704769"/>
     <use style="fill:#1f77b4;stroke:#1f77b4;" x="475.65" xlink:href="#m6ec7bace80" y="207.497997"/>
     <use style="fill:#1f77b4;stroke:#1f77b4;" x="487.275" xlink:href="#m6ec7bace80" y="200.291217"/>
     <use style="fill:#1f77b4;stroke:#1f77b4;" x="498.9" xlink:href="#m6ec7bace80" y="193.084451"/>
     <use style="fill:#1f77b4;stroke:#1f77b4;" x="510.525" xlink:href="#m6ec7bace80" y="185.877727"/>
     <use style="fill:#1f77b4;stroke:#1f77b4;" x="522.15" xlink:href="#m6ec7bace80" y="178.670971"/>
     <use style="fill:#1f77b4;stroke:#1f77b4;" x="533.775" xlink:href="#m6ec7bace80" y="171.464202"/>
     <use style="fill:#1f77b4;stroke:#1f77b4;" x="545.4" xlink:href="#m6ec7bace80" y="164.257448"/>
     <use style="fill:#1f77b4;stroke:#1f77b4;" x="557.025" xlink:href="#m6ec7bace80" y="157.050694"/>
     <use style="fill:#1f77b4;stroke:#1f77b4;" x="568.65" xlink:href="#m6ec7bace80" y="149.843924"/>
     <use style="fill:#1f77b4;stroke:#1f77b4;" x="580.275" xlink:href="#m6ec7bace80" y="142.637154"/>
     <use style="fill:#1f77b4;stroke:#1f77b4;" x="591.9" xlink:href="#m6ec7bace80" y="135.430421"/>
     <use style="fill:#1f77b4;stroke:#1f77b4;" x="603.525" xlink:href="#m6ec7bace80" y="128.223668"/>
     <use style="fill:#1f77b4;stroke:#1f77b4;" x="615.15" xlink:href="#m6ec7bace80" y="121.016897"/>
     <use style="fill:#1f77b4;stroke:#1f77b4;" x="626.775" xlink:href="#m6ec7bace80" y="113.810125"/>
     <use style="fill:#1f77b4;stroke:#1f77b4;" x="638.4" xlink:href="#m6ec7bace80" y="106.603391"/>
     <use style="fill:#1f77b4;stroke:#1f77b4;" x="650.025" xlink:href="#m6ec7bace80" y="99.396627"/>
     <use style="fill:#1f77b4;stroke:#1f77b4;" x="661.65" xlink:href="#m6ec7bace80" y="92.189857"/>
     <use style="fill:#1f77b4;stroke:#1f77b4;" x="673.275" xlink:href="#m6ec7bace80" y="84.983108"/>
     <use style="fill:#1f77b4;stroke:#1f77b4;" x="684.9" xlink:href="#m6ec7bace80" y="77.776364"/>
    </g>
   </g>
   <g id="matplotlib.axis_1">
    <g id="xtick_1">
     <g id="line2d_1">
      <defs>
       <path d="M 0 0 
L 0 3.5 
" id="mf757823b72" style="stroke:#000000;stroke-width:0.8;"/>
      </defs>
      <g>
       <use style="stroke:#000000;stroke-width:0.8;" x="115.275" xlink:href="#mf757823b72" y="441"/>
      </g>
     </g>
     <g id="text_1">
      <!-- 0 -->
      <g transform="translate(112.09375 455.598437)scale(0.1 -0.1)">
       <defs>
        <path d="M 2034 4250 
Q 1547 4250 1301 3770 
Q 1056 3291 1056 2328 
Q 1056 1369 1301 889 
Q 1547 409 2034 409 
Q 2525 409 2770 889 
Q 3016 1369 3016 2328 
Q 3016 3291 2770 3770 
Q 2525 4250 2034 4250 
z
M 2034 4750 
Q 2819 4750 3233 4129 
Q 3647 3509 3647 2328 
Q 3647 1150 3233 529 
Q 2819 -91 2034 -91 
Q 1250 -91 836 529 
Q 422 1150 422 2328 
Q 422 3509 836 4129 
Q 1250 4750 2034 4750 
z
" id="DejaVuSans-30" transform="scale(0.015625)"/>
       </defs>
       <use xlink:href="#DejaVuSans-30"/>
      </g>
     </g>
    </g>
    <g id="xtick_2">
     <g id="line2d_2">
      <g>
       <use style="stroke:#000000;stroke-width:0.8;" x="183.63" xlink:href="#mf757823b72" y="441"/>
      </g>
     </g>
     <g id="text_2">
      <!-- 1 -->
      <g transform="translate(180.44875 455.598437)scale(0.1 -0.1)">
       <defs>
        <path d="M 794 531 
L 1825 531 
L 1825 4091 
L 703 3866 
L 703 4441 
L 1819 4666 
L 2450 4666 
L 2450 531 
L 3481 531 
L 3481 0 
L 794 0 
L 794 531 
z
" id="DejaVuSans-31" transform="scale(0.015625)"/>
       </defs>
       <use xlink:href="#DejaVuSans-31"/>
      </g>
     </g>
    </g>
    <g id="xtick_3">
     <g id="line2d_3">
      <g>
       <use style="stroke:#000000;stroke-width:0.8;" x="251.985" xlink:href="#mf757823b72" y="441"/>
      </g>
     </g>
     <g id="text_3">
      <!-- 2 -->
      <g transform="translate(248.80375 455.598437)scale(0.1 -0.1)">
       <defs>
        <path d="M 1228 531 
L 3431 531 
L 3431 0 
L 469 0 
L 469 531 
Q 828 903 1448 1529 
Q 2069 2156 2228 2338 
Q 2531 2678 2651 2914 
Q 2772 3150 2772 3378 
Q 2772 3750 2511 3984 
Q 2250 4219 1831 4219 
Q 1534 4219 1204 4116 
Q 875 4013 500 3803 
L 500 4441 
Q 881 4594 1212 4672 
Q 1544 4750 1819 4750 
Q 2544 4750 2975 4387 
Q 3406 4025 3406 3419 
Q 3406 3131 3298 2873 
Q 3191 2616 2906 2266 
Q 2828 2175 2409 1742 
Q 1991 1309 1228 531 
z
" id="DejaVuSans-32" transform="scale(0.015625)"/>
       </defs>
       <use xlink:href="#DejaVuSans-32"/>
      </g>
     </g>
    </g>
    <g id="xtick_4">
     <g id="line2d_4">
      <g>
       <use style="stroke:#000000;stroke-width:0.8;" x="320.34" xlink:href="#mf757823b72" y="441"/>
      </g>
     </g>
     <g id="text_4">
      <!-- 3 -->
      <g transform="translate(317.15875 455.598437)scale(0.1 -0.1)">
       <defs>
        <path d="M 2597 2516 
Q 3050 2419 3304 2112 
Q 3559 1806 3559 1356 
Q 3559 666 3084 287 
Q 2609 -91 1734 -91 
Q 1441 -91 1130 -33 
Q 819 25 488 141 
L 488 750 
Q 750 597 1062 519 
Q 1375 441 1716 441 
Q 2309 441 2620 675 
Q 2931 909 2931 1356 
Q 2931 1769 2642 2001 
Q 2353 2234 1838 2234 
L 1294 2234 
L 1294 2753 
L 1863 2753 
Q 2328 2753 2575 2939 
Q 2822 3125 2822 3475 
Q 2822 3834 2567 4026 
Q 2313 4219 1838 4219 
Q 1578 4219 1281 4162 
Q 984 4106 628 3988 
L 628 4550 
Q 988 4650 1302 4700 
Q 1616 4750 1894 4750 
Q 2613 4750 3031 4423 
Q 3450 4097 3450 3541 
Q 3450 3153 3228 2886 
Q 3006 2619 2597 2516 
z
" id="DejaVuSans-33" transform="scale(0.015625)"/>
       </defs>
       <use xlink:href="#DejaVuSans-33"/>
      </g>
     </g>
    </g>
    <g id="xtick_5">
     <g id="line2d_5">
      <g>
       <use style="stroke:#000000;stroke-width:0.8;" x="388.695" xlink:href="#mf757823b72" y="441"/>
      </g>
     </g>
     <g id="text_5">
      <!-- 4 -->
      <g transform="translate(385.51375 455.598437)scale(0.1 -0.1)">
       <defs>
        <path d="M 2419 4116 
L 825 1625 
L 2419 1625 
L 2419 4116 
z
M 2253 4666 
L 3047 4666 
L 3047 1625 
L 3713 1625 
L 3713 1100 
L 3047 1100 
L 3047 0 
L 2419 0 
L 2419 1100 
L 313 1100 
L 313 1709 
L 2253 4666 
z
" id="DejaVuSans-34" transform="scale(0.015625)"/>
       </defs>
       <use xlink:href="#DejaVuSans-34"/>
      </g>
     </g>
    </g>
    <g id="xtick_6">
     <g id="line2d_6">
      <g>
       <use style="stroke:#000000;stroke-width:0.8;" x="457.05" xlink:href="#mf757823b72" y="441"/>
      </g>
     </g>
     <g id="text_6">
      <!-- 5 -->
      <g transform="translate(453.86875 455.598437)scale(0.1 -0.1)">
       <defs>
        <path d="M 691 4666 
L 3169 4666 
L 3169 4134 
L 1269 4134 
L 1269 2991 
Q 1406 3038 1543 3061 
Q 1681 3084 1819 3084 
Q 2600 3084 3056 2656 
Q 3513 2228 3513 1497 
Q 3513 744 3044 326 
Q 2575 -91 1722 -91 
Q 1428 -91 1123 -41 
Q 819 9 494 109 
L 494 744 
Q 775 591 1075 516 
Q 1375 441 1709 441 
Q 2250 441 2565 725 
Q 2881 1009 2881 1497 
Q 2881 1984 2565 2268 
Q 2250 2553 1709 2553 
Q 1456 2553 1204 2497 
Q 953 2441 691 2322 
L 691 4666 
z
" id="DejaVuSans-35" transform="scale(0.015625)"/>
       </defs>
       <use xlink:href="#DejaVuSans-35"/>
      </g>
     </g>
    </g>
    <g id="xtick_7">
     <g id="line2d_7">
      <g>
       <use style="stroke:#000000;stroke-width:0.8;" x="525.405" xlink:href="#mf757823b72" y="441"/>
      </g>
     </g>
     <g id="text_7">
      <!-- 6 -->
      <g transform="translate(522.22375 455.598437)scale(0.1 -0.1)">
       <defs>
        <path d="M 2113 2584 
Q 1688 2584 1439 2293 
Q 1191 2003 1191 1497 
Q 1191 994 1439 701 
Q 1688 409 2113 409 
Q 2538 409 2786 701 
Q 3034 994 3034 1497 
Q 3034 2003 2786 2293 
Q 2538 2584 2113 2584 
z
M 3366 4563 
L 3366 3988 
Q 3128 4100 2886 4159 
Q 2644 4219 2406 4219 
Q 1781 4219 1451 3797 
Q 1122 3375 1075 2522 
Q 1259 2794 1537 2939 
Q 1816 3084 2150 3084 
Q 2853 3084 3261 2657 
Q 3669 2231 3669 1497 
Q 3669 778 3244 343 
Q 2819 -91 2113 -91 
Q 1303 -91 875 529 
Q 447 1150 447 2328 
Q 447 3434 972 4092 
Q 1497 4750 2381 4750 
Q 2619 4750 2861 4703 
Q 3103 4656 3366 4563 
z
" id="DejaVuSans-36" transform="scale(0.015625)"/>
       </defs>
       <use xlink:href="#DejaVuSans-36"/>
      </g>
     </g>
    </g>
    <g id="xtick_8">
     <g id="line2d_8">
      <g>
       <use style="stroke:#000000;stroke-width:0.8;" x="593.76" xlink:href="#mf757823b72" y="441"/>
      </g>
     </g>
     <g id="text_8">
      <!-- 7 -->
      <g transform="translate(590.57875 455.598437)scale(0.1 -0.1)">
       <defs>
        <path d="M 525 4666 
L 3525 4666 
L 3525 4397 
L 1831 0 
L 1172 0 
L 2766 4134 
L 525 4134 
L 525 4666 
z
" id="DejaVuSans-37" transform="scale(0.015625)"/>
       </defs>
       <use xlink:href="#DejaVuSans-37"/>
      </g>
     </g>
    </g>
    <g id="xtick_9">
     <g id="line2d_9">
      <g>
       <use style="stroke:#000000;stroke-width:0.8;" x="662.115" xlink:href="#mf757823b72" y="441"/>
      </g>
     </g>
     <g id="text_9">
      <!-- 8 -->
      <g transform="translate(658.93375 455.598437)scale(0.1 -0.1)">
       <defs>
        <path d="M 2034 2216 
Q 1584 2216 1326 1975 
Q 1069 1734 1069 1313 
Q 1069 891 1326 650 
Q 1584 409 2034 409 
Q 2484 409 2743 651 
Q 3003 894 3003 1313 
Q 3003 1734 2745 1975 
Q 2488 2216 2034 2216 
z
M 1403 2484 
Q 997 2584 770 2862 
Q 544 3141 544 3541 
Q 544 4100 942 4425 
Q 1341 4750 2034 4750 
Q 2731 4750 3128 4425 
Q 3525 4100 3525 3541 
Q 3525 3141 3298 2862 
Q 3072 2584 2669 2484 
Q 3125 2378 3379 2068 
Q 3634 1759 3634 1313 
Q 3634 634 3220 271 
Q 2806 -91 2034 -91 
Q 1263 -91 848 271 
Q 434 634 434 1313 
Q 434 1759 690 2068 
Q 947 2378 1403 2484 
z
M 1172 3481 
Q 1172 3119 1398 2916 
Q 1625 2713 2034 2713 
Q 2441 2713 2670 2916 
Q 2900 3119 2900 3481 
Q 2900 3844 2670 4047 
Q 2441 4250 2034 4250 
Q 1625 4250 1398 4047 
Q 1172 3844 1172 3481 
z
" id="DejaVuSans-38" transform="scale(0.015625)"/>
       </defs>
       <use xlink:href="#DejaVuSans-38"/>
      </g>
     </g>
    </g>
    <g id="text_10">
     <!-- hours -->
     <g transform="translate(391.842969 469.276563)scale(0.1 -0.1)">
      <defs>
       <path d="M 3513 2113 
L 3513 0 
L 2938 0 
L 2938 2094 
Q 2938 2591 2744 2837 
Q 2550 3084 2163 3084 
Q 1697 3084 1428 2787 
Q 1159 2491 1159 1978 
L 1159 0 
L 581 0 
L 581 4863 
L 1159 4863 
L 1159 2956 
Q 1366 3272 1645 3428 
Q 1925 3584 2291 3584 
Q 2894 3584 3203 3211 
Q 3513 2838 3513 2113 
z
" id="DejaVuSans-68" transform="scale(0.015625)"/>
       <path d="M 1959 3097 
Q 1497 3097 1228 2736 
Q 959 2375 959 1747 
Q 959 1119 1226 758 
Q 1494 397 1959 397 
Q 2419 397 2687 759 
Q 2956 1122 2956 1747 
Q 2956 2369 2687 2733 
Q 2419 3097 1959 3097 
z
M 1959 3584 
Q 2709 3584 3137 3096 
Q 3566 2609 3566 1747 
Q 3566 888 3137 398 
Q 2709 -91 1959 -91 
Q 1206 -91 779 398 
Q 353 888 353 1747 
Q 353 2609 779 3096 
Q 1206 3584 1959 3584 
z
" id="DejaVuSans-6f" transform="scale(0.015625)"/>
       <path d="M 544 1381 
L 544 3500 
L 1119 3500 
L 1119 1403 
Q 1119 906 1312 657 
Q 1506 409 1894 409 
Q 2359 409 2629 706 
Q 2900 1003 2900 1516 
L 2900 3500 
L 3475 3500 
L 3475 0 
L 2900 0 
L 2900 538 
Q 2691 219 2414 64 
Q 2138 -91 1772 -91 
Q 1169 -91 856 284 
Q 544 659 544 1381 
z
M 1991 3584 
L 1991 3584 
z
" id="DejaVuSans-75" transform="scale(0.015625)"/>
       <path d="M 2631 2963 
Q 2534 3019 2420 3045 
Q 2306 3072 2169 3072 
Q 1681 3072 1420 2755 
Q 1159 2438 1159 1844 
L 1159 0 
L 581 0 
L 581 3500 
L 1159 3500 
L 1159 2956 
Q 1341 3275 1631 3429 
Q 1922 3584 2338 3584 
Q 2397 3584 2469 3576 
Q 2541 3569 2628 3553 
L 2631 2963 
z
" id="DejaVuSans-72" transform="scale(0.015625)"/>
       <path d="M 2834 3397 
L 2834 2853 
Q 2591 2978 2328 3040 
Q 2066 3103 1784 3103 
Q 1356 3103 1142 2972 
Q 928 2841 928 2578 
Q 928 2378 1081 2264 
Q 1234 2150 1697 2047 
L 1894 2003 
Q 2506 1872 2764 1633 
Q 3022 1394 3022 966 
Q 3022 478 2636 193 
Q 2250 -91 1575 -91 
Q 1294 -91 989 -36 
Q 684 19 347 128 
L 347 722 
Q 666 556 975 473 
Q 1284 391 1588 391 
Q 1994 391 2212 530 
Q 2431 669 2431 922 
Q 2431 1156 2273 1281 
Q 2116 1406 1581 1522 
L 1381 1569 
Q 847 1681 609 1914 
Q 372 2147 372 2553 
Q 372 3047 722 3315 
Q 1072 3584 1716 3584 
Q 2034 3584 2315 3537 
Q 2597 3491 2834 3397 
z
" id="DejaVuSans-73" transform="scale(0.015625)"/>
      </defs>
      <use xlink:href="#DejaVuSans-68"/>
      <use x="63.378906" xlink:href="#DejaVuSans-6f"/>
      <use x="124.560547" xlink:href="#DejaVuSans-75"/>
      <use x="187.939453" xlink:href="#DejaVuSans-72"/>
      <use x="229.052734" xlink:href="#DejaVuSans-73"/>
     </g>
    </g>
   </g>
   <g id="matplotlib.axis_2">
    <g id="ytick_1">
     <g id="line2d_10">
      <defs>
       <path d="M 0 0 
L -3.5 0 
" id="mdac5f2bf3b" style="stroke:#000000;stroke-width:0.8;"/>
      </defs>
      <g>
       <use style="stroke:#000000;stroke-width:0.8;" x="99" xlink:href="#mdac5f2bf3b" y="430.910498"/>
      </g>
     </g>
     <g id="text_11">
      <!-- 0.0 -->
      <g transform="translate(76.096875 434.709717)scale(0.1 -0.1)">
       <defs>
        <path d="M 684 794 
L 1344 794 
L 1344 0 
L 684 0 
L 684 794 
z
" id="DejaVuSans-2e" transform="scale(0.015625)"/>
       </defs>
       <use xlink:href="#DejaVuSans-30"/>
       <use x="63.623047" xlink:href="#DejaVuSans-2e"/>
       <use x="95.410156" xlink:href="#DejaVuSans-30"/>
      </g>
     </g>
    </g>
    <g id="ytick_2">
     <g id="line2d_11">
      <g>
       <use style="stroke:#000000;stroke-width:0.8;" x="99" xlink:href="#mdac5f2bf3b" y="356.9199"/>
      </g>
     </g>
     <g id="text_12">
      <!-- 0.5 -->
      <g transform="translate(76.096875 360.719119)scale(0.1 -0.1)">
       <use xlink:href="#DejaVuSans-30"/>
       <use x="63.623047" xlink:href="#DejaVuSans-2e"/>
       <use x="95.410156" xlink:href="#DejaVuSans-35"/>
      </g>
     </g>
    </g>
    <g id="ytick_3">
     <g id="line2d_12">
      <g>
       <use style="stroke:#000000;stroke-width:0.8;" x="99" xlink:href="#mdac5f2bf3b" y="282.929302"/>
      </g>
     </g>
     <g id="text_13">
      <!-- 1.0 -->
      <g transform="translate(76.096875 286.728521)scale(0.1 -0.1)">
       <use xlink:href="#DejaVuSans-31"/>
       <use x="63.623047" xlink:href="#DejaVuSans-2e"/>
       <use x="95.410156" xlink:href="#DejaVuSans-30"/>
      </g>
     </g>
    </g>
    <g id="ytick_4">
     <g id="line2d_13">
      <g>
       <use style="stroke:#000000;stroke-width:0.8;" x="99" xlink:href="#mdac5f2bf3b" y="208.938704"/>
      </g>
     </g>
     <g id="text_14">
      <!-- 1.5 -->
      <g transform="translate(76.096875 212.737923)scale(0.1 -0.1)">
       <use xlink:href="#DejaVuSans-31"/>
       <use x="63.623047" xlink:href="#DejaVuSans-2e"/>
       <use x="95.410156" xlink:href="#DejaVuSans-35"/>
      </g>
     </g>
    </g>
    <g id="ytick_5">
     <g id="line2d_14">
      <g>
       <use style="stroke:#000000;stroke-width:0.8;" x="99" xlink:href="#mdac5f2bf3b" y="134.948106"/>
      </g>
     </g>
     <g id="text_15">
      <!-- 2.0 -->
      <g transform="translate(76.096875 138.747325)scale(0.1 -0.1)">
       <use xlink:href="#DejaVuSans-32"/>
       <use x="63.623047" xlink:href="#DejaVuSans-2e"/>
       <use x="95.410156" xlink:href="#DejaVuSans-30"/>
      </g>
     </g>
    </g>
    <g id="ytick_6">
     <g id="line2d_15">
      <g>
       <use style="stroke:#000000;stroke-width:0.8;" x="99" xlink:href="#mdac5f2bf3b" y="60.957509"/>
      </g>
     </g>
     <g id="text_16">
      <!-- 2.5 -->
      <g transform="translate(76.096875 64.756727)scale(0.1 -0.1)">
       <use xlink:href="#DejaVuSans-32"/>
       <use x="63.623047" xlink:href="#DejaVuSans-2e"/>
       <use x="95.410156" xlink:href="#DejaVuSans-35"/>
      </g>
     </g>
    </g>
    <g id="text_17">
     <!-- reduction -->
     <g transform="translate(70.017187 274.429062)rotate(-90)scale(0.1 -0.1)">
      <defs>
       <path d="M 3597 1894 
L 3597 1613 
L 953 1613 
Q 991 1019 1311 708 
Q 1631 397 2203 397 
Q 2534 397 2845 478 
Q 3156 559 3463 722 
L 3463 178 
Q 3153 47 2828 -22 
Q 2503 -91 2169 -91 
Q 1331 -91 842 396 
Q 353 884 353 1716 
Q 353 2575 817 3079 
Q 1281 3584 2069 3584 
Q 2775 3584 3186 3129 
Q 3597 2675 3597 1894 
z
M 3022 2063 
Q 3016 2534 2758 2815 
Q 2500 3097 2075 3097 
Q 1594 3097 1305 2825 
Q 1016 2553 972 2059 
L 3022 2063 
z
" id="DejaVuSans-65" transform="scale(0.015625)"/>
       <path d="M 2906 2969 
L 2906 4863 
L 3481 4863 
L 3481 0 
L 2906 0 
L 2906 525 
Q 2725 213 2448 61 
Q 2172 -91 1784 -91 
Q 1150 -91 751 415 
Q 353 922 353 1747 
Q 353 2572 751 3078 
Q 1150 3584 1784 3584 
Q 2172 3584 2448 3432 
Q 2725 3281 2906 2969 
z
M 947 1747 
Q 947 1113 1208 752 
Q 1469 391 1925 391 
Q 2381 391 2643 752 
Q 2906 1113 2906 1747 
Q 2906 2381 2643 2742 
Q 2381 3103 1925 3103 
Q 1469 3103 1208 2742 
Q 947 2381 947 1747 
z
" id="DejaVuSans-64" transform="scale(0.015625)"/>
       <path d="M 3122 3366 
L 3122 2828 
Q 2878 2963 2633 3030 
Q 2388 3097 2138 3097 
Q 1578 3097 1268 2742 
Q 959 2388 959 1747 
Q 959 1106 1268 751 
Q 1578 397 2138 397 
Q 2388 397 2633 464 
Q 2878 531 3122 666 
L 3122 134 
Q 2881 22 2623 -34 
Q 2366 -91 2075 -91 
Q 1284 -91 818 406 
Q 353 903 353 1747 
Q 353 2603 823 3093 
Q 1294 3584 2113 3584 
Q 2378 3584 2631 3529 
Q 2884 3475 3122 3366 
z
" id="DejaVuSans-63" transform="scale(0.015625)"/>
       <path d="M 1172 4494 
L 1172 3500 
L 2356 3500 
L 2356 3053 
L 1172 3053 
L 1172 1153 
Q 1172 725 1289 603 
Q 1406 481 1766 481 
L 2356 481 
L 2356 0 
L 1766 0 
Q 1100 0 847 248 
Q 594 497 594 1153 
L 594 3053 
L 172 3053 
L 172 3500 
L 594 3500 
L 594 4494 
L 1172 4494 
z
" id="DejaVuSans-74" transform="scale(0.015625)"/>
       <path d="M 603 3500 
L 1178 3500 
L 1178 0 
L 603 0 
L 603 3500 
z
M 603 4863 
L 1178 4863 
L 1178 4134 
L 603 4134 
L 603 4863 
z
" id="DejaVuSans-69" transform="scale(0.015625)"/>
       <path d="M 3513 2113 
L 3513 0 
L 2938 0 
L 2938 2094 
Q 2938 2591 2744 2837 
Q 2550 3084 2163 3084 
Q 1697 3084 1428 2787 
Q 1159 2491 1159 1978 
L 1159 0 
L 581 0 
L 581 3500 
L 1159 3500 
L 1159 2956 
Q 1366 3272 1645 3428 
Q 1925 3584 2291 3584 
Q 2894 3584 3203 3211 
Q 3513 2838 3513 2113 
z
" id="DejaVuSans-6e" transform="scale(0.015625)"/>
      </defs>
      <use xlink:href="#DejaVuSans-72"/>
      <use x="38.863281" xlink:href="#DejaVuSans-65"/>
      <use x="100.386719" xlink:href="#DejaVuSans-64"/>
      <use x="163.863281" xlink:href="#DejaVuSans-75"/>
      <use x="227.242188" xlink:href="#DejaVuSans-63"/>
      <use x="282.222656" xlink:href="#DejaVuSans-74"/>
      <use x="321.431641" xlink:href="#DejaVuSans-69"/>
      <use x="349.214844" xlink:href="#DejaVuSans-6f"/>
      <use x="410.396484" xlink:href="#DejaVuSans-6e"/>
     </g>
    </g>
   </g>
   <g id="line2d_16">
    <path clip-path="url(#p325c505c26)" d="M 126.9 422.401304 
L 127.881815 422.02971 
L 128.946551 421.609119 
L 130.101212 421.13341 
L 131.353393 420.59579 
L 132.711329 419.988746 
L 134.183953 419.304001 
L 135.78095 418.532472 
L 137.512825 417.664239 
L 139.39097 416.688527 
L 141.427737 415.5937 
L 143.636524 414.367274 
L 146.031859 412.995957 
L 148.629497 411.465706 
L 151.446525 409.761821 
L 154.501471 407.869066 
L 157.814429 405.771819 
L 161.40719 403.454252 
L 165.303386 400.90053 
L 169.528644 398.09503 
L 174.110755 395.022551 
L 179.079858 391.668526 
L 184.468638 388.019191 
L 190.312539 384.061711 
L 196.65 379.784229 
L 203.522705 375.175835 
L 210.97586 370.226409 
L 219.058487 364.926347 
L 227.82375 359.266134 
L 237.329303 353.235753 
L 247.637668 346.823895 
L 258.816649 340.016949 
L 270.939775 332.797706 
L 284.086787 325.143681 
L 298.344158 317.024927 
L 313.805668 308.401084 
L 330.573013 299.217264 
L 348.756481 289.3981 
L 368.475674 278.838747 
L 389.860296 267.390582 
L 413.051002 254.837212 
L 438.200331 240.851401 
L 465.473702 224.910986 
L 495.050505 206.115362 
L 527.125283 182.716007 
L 561.909006 150.57145 
L 599.630466 94.777398 
" style="fill:none;stroke:#1f77b4;stroke-linecap:square;stroke-width:1.5;"/>
   </g>
   <g id="patch_3">
    <path d="M 99 441 
L 99 60.48 
" style="fill:none;stroke:#000000;stroke-linecap:square;stroke-linejoin:miter;stroke-width:0.8;"/>
   </g>
   <g id="patch_4">
    <path d="M 712.8 441 
L 712.8 60.48 
" style="fill:none;stroke:#000000;stroke-linecap:square;stroke-linejoin:miter;stroke-width:0.8;"/>
   </g>
   <g id="patch_5">
    <path d="M 99 441 
L 712.8 441 
" style="fill:none;stroke:#000000;stroke-linecap:square;stroke-linejoin:miter;stroke-width:0.8;"/>
   </g>
   <g id="patch_6">
    <path d="M 99 60.48 
L 712.8 60.48 
" style="fill:none;stroke:#000000;stroke-linecap:square;stroke-linejoin:miter;stroke-width:0.8;"/>
   </g>
   <g id="text_18">
    <!-- Linear fitted Hill equation for porphyrin PDI -->
    <g transform="translate(276.537188 54.48)scale(0.12 -0.12)">
     <defs>
      <path d="M 628 4666 
L 1259 4666 
L 1259 531 
L 3531 531 
L 3531 0 
L 628 0 
L 628 4666 
z
" id="DejaVuSans-4c" transform="scale(0.015625)"/>
      <path d="M 2194 1759 
Q 1497 1759 1228 1600 
Q 959 1441 959 1056 
Q 959 750 1161 570 
Q 1363 391 1709 391 
Q 2188 391 2477 730 
Q 2766 1069 2766 1631 
L 2766 1759 
L 2194 1759 
z
M 3341 1997 
L 3341 0 
L 2766 0 
L 2766 531 
Q 2569 213 2275 61 
Q 1981 -91 1556 -91 
Q 1019 -91 701 211 
Q 384 513 384 1019 
Q 384 1609 779 1909 
Q 1175 2209 1959 2209 
L 2766 2209 
L 2766 2266 
Q 2766 2663 2505 2880 
Q 2244 3097 1772 3097 
Q 1472 3097 1187 3025 
Q 903 2953 641 2809 
L 641 3341 
Q 956 3463 1253 3523 
Q 1550 3584 1831 3584 
Q 2591 3584 2966 3190 
Q 3341 2797 3341 1997 
z
" id="DejaVuSans-61" transform="scale(0.015625)"/>
      <path id="DejaVuSans-20" transform="scale(0.015625)"/>
      <path d="M 2375 4863 
L 2375 4384 
L 1825 4384 
Q 1516 4384 1395 4259 
Q 1275 4134 1275 3809 
L 1275 3500 
L 2222 3500 
L 2222 3053 
L 1275 3053 
L 1275 0 
L 697 0 
L 697 3053 
L 147 3053 
L 147 3500 
L 697 3500 
L 697 3744 
Q 697 4328 969 4595 
Q 1241 4863 1831 4863 
L 2375 4863 
z
" id="DejaVuSans-66" transform="scale(0.015625)"/>
      <path d="M 628 4666 
L 1259 4666 
L 1259 2753 
L 3553 2753 
L 3553 4666 
L 4184 4666 
L 4184 0 
L 3553 0 
L 3553 2222 
L 1259 2222 
L 1259 0 
L 628 0 
L 628 4666 
z
" id="DejaVuSans-48" transform="scale(0.015625)"/>
      <path d="M 603 4863 
L 1178 4863 
L 1178 0 
L 603 0 
L 603 4863 
z
" id="DejaVuSans-6c" transform="scale(0.015625)"/>
      <path d="M 947 1747 
Q 947 1113 1208 752 
Q 1469 391 1925 391 
Q 2381 391 2643 752 
Q 2906 1113 2906 1747 
Q 2906 2381 2643 2742 
Q 2381 3103 1925 3103 
Q 1469 3103 1208 2742 
Q 947 2381 947 1747 
z
M 2906 525 
Q 2725 213 2448 61 
Q 2172 -91 1784 -91 
Q 1150 -91 751 415 
Q 353 922 353 1747 
Q 353 2572 751 3078 
Q 1150 3584 1784 3584 
Q 2172 3584 2448 3432 
Q 2725 3281 2906 2969 
L 2906 3500 
L 3481 3500 
L 3481 -1331 
L 2906 -1331 
L 2906 525 
z
" id="DejaVuSans-71" transform="scale(0.015625)"/>
      <path d="M 1159 525 
L 1159 -1331 
L 581 -1331 
L 581 3500 
L 1159 3500 
L 1159 2969 
Q 1341 3281 1617 3432 
Q 1894 3584 2278 3584 
Q 2916 3584 3314 3078 
Q 3713 2572 3713 1747 
Q 3713 922 3314 415 
Q 2916 -91 2278 -91 
Q 1894 -91 1617 61 
Q 1341 213 1159 525 
z
M 3116 1747 
Q 3116 2381 2855 2742 
Q 2594 3103 2138 3103 
Q 1681 3103 1420 2742 
Q 1159 2381 1159 1747 
Q 1159 1113 1420 752 
Q 1681 391 2138 391 
Q 2594 391 2855 752 
Q 3116 1113 3116 1747 
z
" id="DejaVuSans-70" transform="scale(0.015625)"/>
      <path d="M 2059 -325 
Q 1816 -950 1584 -1140 
Q 1353 -1331 966 -1331 
L 506 -1331 
L 506 -850 
L 844 -850 
Q 1081 -850 1212 -737 
Q 1344 -625 1503 -206 
L 1606 56 
L 191 3500 
L 800 3500 
L 1894 763 
L 2988 3500 
L 3597 3500 
L 2059 -325 
z
" id="DejaVuSans-79" transform="scale(0.015625)"/>
      <path d="M 1259 4147 
L 1259 2394 
L 2053 2394 
Q 2494 2394 2734 2622 
Q 2975 2850 2975 3272 
Q 2975 3691 2734 3919 
Q 2494 4147 2053 4147 
L 1259 4147 
z
M 628 4666 
L 2053 4666 
Q 2838 4666 3239 4311 
Q 3641 3956 3641 3272 
Q 3641 2581 3239 2228 
Q 2838 1875 2053 1875 
L 1259 1875 
L 1259 0 
L 628 0 
L 628 4666 
z
" id="DejaVuSans-50" transform="scale(0.015625)"/>
      <path d="M 1259 4147 
L 1259 519 
L 2022 519 
Q 2988 519 3436 956 
Q 3884 1394 3884 2338 
Q 3884 3275 3436 3711 
Q 2988 4147 2022 4147 
L 1259 4147 
z
M 628 4666 
L 1925 4666 
Q 3281 4666 3915 4102 
Q 4550 3538 4550 2338 
Q 4550 1131 3912 565 
Q 3275 0 1925 0 
L 628 0 
L 628 4666 
z
" id="DejaVuSans-44" transform="scale(0.015625)"/>
      <path d="M 628 4666 
L 1259 4666 
L 1259 0 
L 628 0 
L 628 4666 
z
" id="DejaVuSans-49" transform="scale(0.015625)"/>
     </defs>
     <use xlink:href="#DejaVuSans-4c"/>
     <use x="55.712891" xlink:href="#DejaVuSans-69"/>
     <use x="83.496094" xlink:href="#DejaVuSans-6e"/>
     <use x="146.875" xlink:href="#DejaVuSans-65"/>
     <use x="208.398438" xlink:href="#DejaVuSans-61"/>
     <use x="269.677734" xlink:href="#DejaVuSans-72"/>
     <use x="310.791016" xlink:href="#DejaVuSans-20"/>
     <use x="342.578125" xlink:href="#DejaVuSans-66"/>
     <use x="377.783203" xlink:href="#DejaVuSans-69"/>
     <use x="405.566406" xlink:href="#DejaVuSans-74"/>
     <use x="444.775391" xlink:href="#DejaVuSans-74"/>
     <use x="483.984375" xlink:href="#DejaVuSans-65"/>
     <use x="545.507812" xlink:href="#DejaVuSans-64"/>
     <use x="608.984375" xlink:href="#DejaVuSans-20"/>
     <use x="640.771484" xlink:href="#DejaVuSans-48"/>
     <use x="715.966797" xlink:href="#DejaVuSans-69"/>
     <use x="743.75" xlink:href="#DejaVuSans-6c"/>
     <use x="771.533203" xlink:href="#DejaVuSans-6c"/>
     <use x="799.316406" xlink:href="#DejaVuSans-20"/>
     <use x="831.103516" xlink:href="#DejaVuSans-65"/>
     <use x="892.626953" xlink:href="#DejaVuSans-71"/>
     <use x="956.103516" xlink:href="#DejaVuSans-75"/>
     <use x="1019.482422" xlink:href="#DejaVuSans-61"/>
     <use x="1080.761719" xlink:href="#DejaVuSans-74"/>
     <use x="1119.970703" xlink:href="#DejaVuSans-69"/>
     <use x="1147.753906" xlink:href="#DejaVuSans-6f"/>
     <use x="1208.935547" xlink:href="#DejaVuSans-6e"/>
     <use x="1272.314453" xlink:href="#DejaVuSans-20"/>
     <use x="1304.101562" xlink:href="#DejaVuSans-66"/>
     <use x="1339.306641" xlink:href="#DejaVuSans-6f"/>
     <use x="1400.488281" xlink:href="#DejaVuSans-72"/>
     <use x="1441.601562" xlink:href="#DejaVuSans-20"/>
     <use x="1473.388672" xlink:href="#DejaVuSans-70"/>
     <use x="1536.865234" xlink:href="#DejaVuSans-6f"/>
     <use x="1598.046875" xlink:href="#DejaVuSans-72"/>
     <use x="1639.160156" xlink:href="#DejaVuSans-70"/>
     <use x="1702.636719" xlink:href="#DejaVuSans-68"/>
     <use x="1766.015625" xlink:href="#DejaVuSans-79"/>
     <use x="1825.195312" xlink:href="#DejaVuSans-72"/>
     <use x="1866.308594" xlink:href="#DejaVuSans-69"/>
     <use x="1894.091797" xlink:href="#DejaVuSans-6e"/>
     <use x="1957.470703" xlink:href="#DejaVuSans-20"/>
     <use x="1989.257812" xlink:href="#DejaVuSans-50"/>
     <use x="2049.560547" xlink:href="#DejaVuSans-44"/>
     <use x="2126.5625" xlink:href="#DejaVuSans-49"/>
    </g>
   </g>
   <g id="legend_1">
    <g id="patch_7">
     <path d="M 627.857813 436 
L 705.8 436 
Q 707.8 436 707.8 434 
L 707.8 405.365625 
Q 707.8 403.365625 705.8 403.365625 
L 627.857813 403.365625 
Q 625.857813 403.365625 625.857813 405.365625 
L 625.857813 434 
Q 625.857813 436 627.857813 436 
z
" style="fill:#ffffff;opacity:0.8;stroke:#cccccc;stroke-linejoin:miter;"/>
    </g>
    <g id="line2d_17">
     <path d="M 629.857813 411.464063 
L 649.857813 411.464063 
" style="fill:none;stroke:#1f77b4;stroke-linecap:square;stroke-width:1.5;"/>
    </g>
    <g id="line2d_18"/>
    <g id="text_19">
     <!-- Hill fit -->
     <g transform="translate(657.857813 414.964063)scale(0.1 -0.1)">
      <use xlink:href="#DejaVuSans-48"/>
      <use x="75.195312" xlink:href="#DejaVuSans-69"/>
      <use x="102.978516" xlink:href="#DejaVuSans-6c"/>
      <use x="130.761719" xlink:href="#DejaVuSans-6c"/>
      <use x="158.544922" xlink:href="#DejaVuSans-20"/>
      <use x="190.332031" xlink:href="#DejaVuSans-66"/>
      <use x="225.537109" xlink:href="#DejaVuSans-69"/>
      <use x="253.320312" xlink:href="#DejaVuSans-74"/>
     </g>
    </g>
    <g id="PathCollection_2">
     <g>
      <use style="fill:#1f77b4;stroke:#1f77b4;" x="639.857813" xlink:href="#m6ec7bace80" y="427.017187"/>
     </g>
    </g>
    <g id="text_20">
     <!-- raw_data -->
     <g transform="translate(657.857813 429.642187)scale(0.1 -0.1)">
      <defs>
       <path d="M 269 3500 
L 844 3500 
L 1563 769 
L 2278 3500 
L 2956 3500 
L 3675 769 
L 4391 3500 
L 4966 3500 
L 4050 0 
L 3372 0 
L 2619 2869 
L 1863 0 
L 1184 0 
L 269 3500 
z
" id="DejaVuSans-77" transform="scale(0.015625)"/>
       <path d="M 3263 -1063 
L 3263 -1509 
L -63 -1509 
L -63 -1063 
L 3263 -1063 
z
" id="DejaVuSans-5f" transform="scale(0.015625)"/>
      </defs>
      <use xlink:href="#DejaVuSans-72"/>
      <use x="41.113281" xlink:href="#DejaVuSans-61"/>
      <use x="102.392578" xlink:href="#DejaVuSans-77"/>
      <use x="184.179688" xlink:href="#DejaVuSans-5f"/>
      <use x="234.179688" xlink:href="#DejaVuSans-64"/>
      <use x="297.65625" xlink:href="#DejaVuSans-61"/>
      <use x="358.935547" xlink:href="#DejaVuSans-74"/>
      <use x="398.144531" xlink:href="#DejaVuSans-61"/>
     </g>
    </g>
   </g>
  </g>
 </g>
 <defs>
  <clipPath id="p325c505c26">
   <rect height="380.52" width="613.8" x="99" y="60.48"/>
  </clipPath>
 </defs>
</svg>
